PathFileType  4	(X/Y/Z) C:\MyRepositories_Xander\mocap-processing\Testing_HJC_Function\TRCs_w_HJCs
DataRate	CameraRate	NumFrames	NumMarkers	Units	OrigDataRate	OrigDataStartFrame	OrigNumFrames
  240.0		  240.0		    4		    151		 mm	  240.0	      273	    544
Frame#	Time	LFHD			RFHD			LBHD			C7			T10			CLAV			STRN			RBAK			LSHO			LUPA			LELB			LFRM			LWRA			LWRB			LFIN			RSHO			RUPA			RELB			RFRM			RWRA			RWRB			RFIN			LASI			RASI			LPSI			RPSI			SACR			LTHI			LKNE			LMKN			LTIB			LANK			LMED			LHEE			LTOE			RTHI			RKNE			RMKN			RTIB			RANK			RMED			RHEE			RTOE			PELO			PELA			PELL			PELP			LFEO			LFEA			LFEL			LFEP			LTIO			LTIA			LTIL			LTIP			LFOO			LFOA			LFOL			LFOP			LTOO			LTOA			LTOL			LTOP			RFEO			RFEA			RFEL			RFEP			RTIO			RTIA			RTIL			RTIP			RFOO			RFOA			RFOL			RFOP			RTOO			RTOA			RTOL			RTOP			HEDO			HEDA			HEDL			HEDP			LCLO			LCLA			LCLL			LCLP			RCLO			RCLA			RCLL			RCLP			TRXO			TRXA			TRXL			TRXP			LHUO			LHUA			LHUL			LHUP			LRAO			LRAA			LRAL			LRAP			LHNO			LHNA			LHNL			LHNP			RHUO			RHUA			RHUL			RHUP			RRAO			RRAA			RRAL			RRAP			RHNO			RHNA			RHNL			RHNP			RBHD			*120			*121			*122			LHipAngles			LKneeAngles			LAbsAnkleAngle			LAnkleAngles			RHipAngles			RKneeAngles			RAnkleAngles			RAbsAnkleAngle			LPelvisAngles			RPelvisAngles			LFootProgressAngles			RFootProgressAngles			RNeckAngles			LNeckAngles			RSpineAngles			LSpineAngles			LShoulderAngles			LElbowAngles			LWristAngles			RShoulderAngles			RElbowAngles			RWristAngles			RThoraxAngles			LThoraxAngles			RHeadAngles			LHeadAngles			RHJC			LHJC			
		X1	Y1	Z1	X2	Y2	Z2	X3	Y3	Z3	X4	Y4	Z4	X5	Y5	Z5	X6	Y6	Z6	X7	Y7	Z7	X8	Y8	Z8	X9	Y9	Z9	X10	Y10	Z10	X11	Y11	Z11	X12	Y12	Z12	X13	Y13	Z13	X14	Y14	Z14	X15	Y15	Z15	X16	Y16	Z16	X17	Y17	Z17	X18	Y18	Z18	X19	Y19	Z19	X20	Y20	Z20	X21	Y21	Z21	X22	Y22	Z22	X23	Y23	Z23	X24	Y24	Z24	X25	Y25	Z25	X26	Y26	Z26	X27	Y27	Z27	X28	Y28	Z28	X29	Y29	Z29	X30	Y30	Z30	X31	Y31	Z31	X32	Y32	Z32	X33	Y33	Z33	X34	Y34	Z34	X35	Y35	Z35	X36	Y36	Z36	X37	Y37	Z37	X38	Y38	Z38	X39	Y39	Z39	X40	Y40	Z40	X41	Y41	Z41	X42	Y42	Z42	X43	Y43	Z43	X44	Y44	Z44	X45	Y45	Z45	X46	Y46	Z46	X47	Y47	Z47	X48	Y48	Z48	X49	Y49	Z49	X50	Y50	Z50	X51	Y51	Z51	X52	Y52	Z52	X53	Y53	Z53	X54	Y54	Z54	X55	Y55	Z55	X56	Y56	Z56	X57	Y57	Z57	X58	Y58	Z58	X59	Y59	Z59	X60	Y60	Z60	X61	Y61	Z61	X62	Y62	Z62	X63	Y63	Z63	X64	Y64	Z64	X65	Y65	Z65	X66	Y66	Z66	X67	Y67	Z67	X68	Y68	Z68	X69	Y69	Z69	X70	Y70	Z70	X71	Y71	Z71	X72	Y72	Z72	X73	Y73	Z73	X74	Y74	Z74	X75	Y75	Z75	X76	Y76	Z76	X77	Y77	Z77	X78	Y78	Z78	X79	Y79	Z79	X80	Y80	Z80	X81	Y81	Z81	X82	Y82	Z82	X83	Y83	Z83	X84	Y84	Z84	X85	Y85	Z85	X86	Y86	Z86	X87	Y87	Z87	X88	Y88	Z88	X89	Y89	Z89	X90	Y90	Z90	X91	Y91	Z91	X92	Y92	Z92	X93	Y93	Z93	X94	Y94	Z94	X95	Y95	Z95	X96	Y96	Z96	X97	Y97	Z97	X98	Y98	Z98	X99	Y99	Z99	X100	Y100	Z100	X101	Y101	Z101	X102	Y102	Z102	X103	Y103	Z103	X104	Y104	Z104	X105	Y105	Z105	X106	Y106	Z106	X107	Y107	Z107	X108	Y108	Z108	X109	Y109	Z109	X110	Y110	Z110	X111	Y111	Z111	X112	Y112	Z112	X113	Y113	Z113	X114	Y114	Z114	X115	Y115	Z115	X116	Y116	Z116	X117	Y117	Z117	X118	Y118	Z118	X119	Y119	Z119	X120	Y120	Z120	X121	Y121	Z121	X122	Y122	Z122	X123	Y123	Z123	X124	Y124	Z124	X125	Y125	Z125	X126	Y126	Z126	X127	Y127	Z127	X128	Y128	Z128	X129	Y129	Z129	X130	Y130	Z130	X131	Y131	Z131	X132	Y132	Z132	X133	Y133	Z133	X134	Y134	Z134	X135	Y135	Z135	X136	Y136	Z136	X137	Y137	Z137	X138	Y138	Z138	X139	Y139	Z139	X140	Y140	Z140	X141	Y141	Z141	X142	Y142	Z142	X143	Y143	Z143	X144	Y144	Z144	X145	Y145	Z145	X146	Y146	Z146	X147	Y147	Z147	X148	Y148	Z148	X149	Y149	Z149	X150	Y150	Z150	X151	Y151	Z151	

273	1.13333	-562.964	1649.729	217.923	-416.647	1656.981	218.095	-512.657	1532.850	334.043	-472.513	1424.863	354.207	-465.909	1219.254	394.592	-485.704	1359.095	217.178	-480.840	1146.538	172.284	-380.753	1368.205	374.142	-630.254	1437.072	325.037	-732.277	1292.497	314.622	-815.093	1229.642	290.739	-905.328	1165.840	284.540	-1006.717	1127.714	280.416	-980.408	1083.384	253.596	-1029.083	1050.247	287.054	-313.618	1435.621	301.894	-246.768	1281.830	315.409	-204.302	1185.813	317.428	-111.001	1104.188	310.435	-16.114	1057.427	295.309	-49.943	1026.753	304.993	8.205	1005.386	334.987	-612.405	953.573	199.457	-354.311	931.317	208.765	-540.544	991.945	383.278	-425.447	981.527	385.087	-486.738	967.251	398.309	-704.019	664.307	283.848	-681.558	495.680	329.091	-551.888	470.189	335.192	-725.088	266.681	352.672	-685.104	95.654	374.776	-605.350	99.746	347.277	-645.254	86.655	425.462	-663.011	71.131	219.220	-264.534	639.930	292.429	-263.968	493.419	306.739	-395.085	462.086	319.714	-185.669	268.114	354.321	-193.186	95.044	357.307	-277.215	97.309	349.848	-230.633	84.923	424.564	-216.768	65.530	217.694	-492.697	857.888	260.897	-488.201	834.781	80.974	-673.366	873.467	254.381	-476.420	1037.192	238.277	-616.926	489.114	324.902	-647.941	424.515	-52.375	-998.190	527.845	349.614	-583.032	865.678	257.639	-649.174	97.497	362.388	-768.927	73.775	11.533	-999.518	137.534	479.259	-618.824	466.057	327.109	-675.753	85.972	221.768	-653.614	285.258	219.862	-874.303	108.193	238.863	-658.551	85.972	421.549	-681.486	85.972	155.174	-674.107	152.401	154.539	-747.670	93.379	160.873	-675.753	85.972	221.768	-326.221	481.555	314.102	-359.465	424.032	-59.666	-696.645	410.963	357.913	-402.363	850.099	264.155	-232.020	96.090	353.860	-199.695	65.473	-19.571	-596.020	4.658	329.848	-320.854	459.595	316.367	-206.602	86.567	212.308	-255.433	281.826	209.036	-401.425	37.626	199.251	-220.063	86.567	413.157	-202.115	86.567	145.359	-218.392	151.653	144.268	-267.056	70.253	141.006	-206.602	86.567	212.308	NaN	NaN	NaN	NaN	NaN	NaN	NaN	NaN	NaN	NaN	NaN	NaN	-642.413	1381.821	318.073	-730.670	1421.079	160.708	-603.026	1560.802	340.633	-485.080	1359.037	224.150	-303.781	1381.128	293.542	-239.551	1420.354	113.241	-269.463	1191.007	264.405	-485.080	1359.037	224.150	-485.080	1359.037	224.150	-502.006	1360.613	34.900	-295.895	1364.407	207.275	-479.872	1169.107	222.102	-807.183	1241.006	248.816	-718.673	1240.536	39.197	-936.765	1419.739	193.701	-642.413	1381.821	318.073	-995.879	1107.907	260.836	-974.677	1059.034	52.498	-1118.343	1276.822	208.748	-820.392	1231.689	249.657	-1079.748	1000.376	279.280	-1013.809	968.951	395.906	-992.827	920.459	208.603	-995.879	1107.907	260.836	-222.995	1181.924	275.853	-417.345	1108.221	218.258	-270.143	1144.412	482.955	-303.781	1381.128	293.542	-33.419	1040.381	293.374	-156.981	867.533	233.936	-81.648	1002.010	505.219	-209.725	1172.016	277.079	53.707	954.589	341.156	40.102	1007.306	460.615	150.961	1038.821	315.061	-33.419	1040.381	293.373	NaN	NaN	NaN	-469.074	1387.212	361.125	-461.941	1527.436	320.468	NaN	NaN	NaN	-0.149	-5.811	2.923	-0.736	-14.646	4.600	0.000	0.000	-5.026	0.005	13.504	-5.169	16.725	6.568	0.111	2.249	-10.572	1.584	-0.008	-0.149	-4.800	0.000	0.000	-4.800	-5.147	1.426	-7.190	5.147	-1.426	-7.190	6.362	-4.921	90.000	14.071	-3.834	90.000	NaN	NaN	NaN	NaN	NaN	NaN	7.372	-6.318	7.204	-7.372	6.318	7.204	-49.762	-161.320	-21.255	0.000	0.000	-21.355	-17.408	136.441	-0.742	-20.757	-110.101	-2.330	-0.000	-0.000	-32.404	-18.546	119.330	2.554	-1.571	5.112	0.618	1.571	-5.112	0.618	NaN	NaN	NaN	NaN	NaN	NaN	-398.650	861.350	279.540	-569.017	876.770	276.862
274	1.13750	-563.050	1649.752	217.932	-416.875	1657.191	218.232	-511.950	1532.381	333.898	-472.673	1424.727	354.083	-465.888	1219.215	394.582	-485.829	1359.087	217.171	-480.775	1146.601	172.277	-380.857	1368.054	374.311	-630.129	1436.901	325.302	-732.397	1292.536	314.597	-815.431	1229.979	290.638	-905.548	1166.110	284.248	-1006.880	1128.064	280.044	-980.791	1083.926	253.229	-1029.386	1050.662	286.531	-313.820	1435.617	302.258	-246.798	1281.936	315.509	-204.350	1186.000	317.727	-110.823	1104.304	310.477	-15.751	1057.517	295.620	-49.733	1026.836	305.150	8.387	1005.249	335.173	-612.522	953.421	199.423	-354.429	931.288	208.592	-540.403	991.936	383.250	-425.386	981.475	385.004	-486.808	967.305	398.352	-704.017	664.316	283.904	-681.454	495.676	329.056	-551.932	470.124	335.074	-725.072	266.657	352.673	-685.096	95.674	374.779	-605.467	99.722	347.352	-645.237	86.644	425.447	-663.046	71.293	219.286	-264.550	639.938	292.305	-263.991	493.452	306.701	-395.246	462.134	319.963	-185.627	267.987	354.146	-193.222	94.989	357.191	-277.207	97.337	349.841	-230.616	84.958	424.596	-216.765	65.539	217.724	-492.743	857.829	260.851	-488.343	834.613	80.940	-673.423	873.323	254.432	-476.560	1037.126	238.110	-616.826	489.121	324.782	-648.303	424.683	-52.341	-997.923	527.775	349.986	-583.083	865.576	257.642	-649.161	97.501	362.402	-768.815	73.672	11.497	-999.555	137.648	479.155	-618.730	466.065	326.997	-675.783	85.980	221.790	-653.589	285.259	219.873	-874.322	108.257	238.941	-658.525	85.980	421.566	-681.535	85.980	155.198	-674.137	152.407	154.559	-747.715	93.406	160.915	-675.783	85.980	221.790	-326.237	481.597	314.140	-359.898	423.856	-59.522	-696.583	411.061	358.402	-402.403	850.082	264.061	-232.058	96.075	353.792	-200.229	65.434	-19.718	-596.147	4.711	330.261	-320.872	459.635	316.399	-206.652	86.548	212.239	-255.442	281.818	208.972	-401.486	37.649	199.194	-220.100	86.548	413.089	-202.170	86.548	145.289	-218.433	151.638	144.200	-267.114	70.248	140.941	-206.652	86.548	212.239	NaN	NaN	NaN	NaN	NaN	NaN	NaN	NaN	NaN	NaN	NaN	NaN	-642.271	1381.648	318.322	-730.793	1420.943	161.252	-602.964	1560.521	340.919	-485.204	1359.031	224.143	-303.958	1381.130	293.896	-239.389	1420.476	113.656	-269.539	1190.952	264.711	-485.204	1359.031	224.143	-485.204	1359.031	224.143	-502.152	1360.541	34.913	-296.044	1364.566	207.246	-479.826	1169.124	222.146	-807.557	1241.486	248.748	-720.243	1242.856	38.558	-937.411	1420.813	195.974	-642.271	1381.648	318.322	-996.154	1108.369	260.473	-976.042	1061.480	51.653	-1118.794	1277.733	210.632	-820.758	1232.168	249.569	-1080.078	1000.851	278.621	-1014.140	969.047	395.126	-993.236	921.094	207.698	-996.154	1108.369	260.473	-223.055	1182.101	276.158	-417.262	1108.283	218.653	-270.073	1144.540	483.162	-303.958	1381.130	293.896	-33.120	1040.488	293.603	-156.758	867.332	234.100	-81.305	1001.993	505.749	-209.760	1172.188	277.379	53.804	954.326	341.250	40.099	1006.678	460.921	151.304	1038.501	315.592	-33.120	1040.488	293.603	NaN	NaN	NaN	-469.104	1387.103	361.124	-467.268	1529.659	330.810	NaN	NaN	NaN	-0.137	-5.858	2.870	-0.706	-14.554	4.567	0.000	0.000	-5.043	0.005	13.468	-5.186	16.699	6.602	0.104	2.245	-10.566	1.619	-0.008	-0.219	-4.785	0.000	0.000	-4.785	-5.117	1.395	-7.229	5.117	-1.395	-7.229	6.378	-4.937	90.000	14.059	-3.830	90.000	NaN	NaN	NaN	NaN	NaN	NaN	7.396	-6.287	7.225	-7.396	6.287	7.225	-50.035	-161.980	-21.366	-0.000	0.000	-21.304	-17.353	136.928	-0.885	-20.755	-110.097	-2.358	0.000	-0.000	-32.394	-18.561	119.109	2.786	-1.622	5.120	0.602	1.622	-5.120	0.602	NaN	NaN	NaN	NaN	NaN	NaN	-398.774	861.208	279.386	-569.125	876.701	276.788
275	1.14167	-563.111	1649.779	217.941	-416.915	1657.214	218.264	-512.011	1532.469	333.958	-472.618	1424.706	354.534	-465.803	1219.144	394.544	-485.924	1359.261	217.206	-481.015	1146.729	172.181	-380.897	1367.894	374.402	-630.170	1436.869	325.667	-732.520	1292.650	314.604	-815.507	1230.083	290.431	-905.755	1166.386	283.965	-1007.122	1128.261	279.626	-980.957	1084.229	252.739	-1029.826	1051.036	286.152	-313.929	1435.488	302.620	-246.853	1281.849	315.624	-203.992	1186.019	317.546	-110.795	1104.568	310.800	-15.517	1057.677	295.915	-49.597	1026.962	305.287	8.501	1005.175	335.294	-612.533	953.549	199.543	-354.396	931.369	208.563	-540.340	991.896	383.245	-425.325	981.579	385.015	-486.721	967.355	398.338	-704.168	664.466	284.028	-681.480	495.649	329.059	-551.926	470.134	335.050	-725.061	266.700	352.703	-685.088	95.649	374.759	-605.319	99.846	347.296	-645.232	86.681	425.469	-662.996	71.099	219.190	-264.616	640.020	292.348	-264.064	493.389	306.665	-395.034	462.057	319.624	-185.669	267.970	354.012	-193.342	95.063	357.304	-277.190	97.353	349.787	-230.658	85.007	424.609	-216.809	65.562	217.737	-492.714	857.920	260.880	-488.419	834.749	80.961	-673.395	873.445	254.567	-476.515	1037.220	238.176	-616.862	489.069	324.673	-649.006	424.894	-52.569	-998.028	527.885	350.548	-583.055	865.682	257.724	-649.155	97.539	362.388	-768.687	73.601	11.538	-999.504	137.669	479.012	-618.764	466.013	326.893	-675.738	86.018	221.769	-653.548	285.298	219.858	-874.283	108.290	238.868	-658.534	86.018	421.550	-681.473	86.018	155.176	-674.077	152.445	154.539	-747.655	93.442	160.875	-675.738	86.018	221.769	-326.323	481.538	314.000	-359.425	424.038	-59.843	-696.838	411.014	357.654	-402.374	850.158	264.037	-232.172	96.124	353.823	-199.534	65.520	-19.527	-596.100	4.708	329.502	-320.959	459.578	316.269	-206.766	86.600	212.269	-255.595	281.860	209.000	-401.590	37.661	199.227	-220.212	86.600	413.119	-202.284	86.600	145.319	-218.560	151.687	144.230	-267.225	70.287	140.972	-206.766	86.600	212.269	NaN	NaN	NaN	NaN	NaN	NaN	NaN	NaN	NaN	NaN	NaN	NaN	-642.301	1381.623	318.619	-731.065	1421.137	161.667	-603.015	1560.536	341.444	-485.292	1359.195	224.177	-304.094	1381.015	294.137	-239.346	1420.748	114.048	-269.768	1190.888	264.531	-485.292	1359.195	224.177	-485.292	1359.195	224.177	-502.460	1360.983	34.938	-296.119	1364.705	207.066	-479.965	1169.259	221.899	-807.822	1241.942	248.603	-721.354	1245.009	38.071	-937.961	1421.636	197.772	-642.301	1381.623	318.619	-996.358	1108.629	260.023	-977.055	1063.400	50.715	-1119.287	1278.366	212.007	-821.019	1232.610	249.403	-1080.779	1001.412	278.343	-1014.844	969.413	394.905	-994.270	921.171	207.381	-996.358	1108.629	260.023	-222.534	1182.233	275.894	-416.162	1108.243	216.456	-271.066	1143.371	482.373	-304.094	1381.015	294.137	-32.911	1040.641	293.814	-155.995	868.030	232.396	-82.586	1000.863	505.159	-209.260	1172.322	277.148	53.851	954.169	341.221	40.058	1006.051	461.099	151.497	1038.332	316.032	-32.911	1040.641	293.814	NaN	NaN	NaN	-469.102	1387.091	361.398	-466.838	1529.571	330.244	NaN	NaN	NaN	-0.133	-5.925	2.850	-0.723	-14.436	4.518	0.000	0.000	-5.060	0.005	13.467	-5.203	16.684	6.480	0.105	2.258	-10.596	1.575	-0.007	-0.094	-4.811	0.000	0.000	-4.811	-5.122	1.362	-7.217	5.122	-1.362	-7.217	6.377	-4.922	90.000	14.070	-3.830	90.000	NaN	NaN	NaN	NaN	NaN	NaN	7.400	-6.319	7.290	-7.400	6.319	7.290	-50.116	-162.392	-21.485	0.000	-0.000	-21.300	-17.092	137.454	-1.245	-20.961	-110.653	-2.373	0.000	-0.000	-32.245	-18.396	119.442	2.782	-1.606	5.186	0.687	1.606	-5.186	0.687	NaN	NaN	NaN	NaN	NaN	NaN	-398.658	861.443	279.476	-569.056	876.728	276.853
276	1.14583	-563.224	1649.804	217.961	-417.016	1657.254	218.203	-512.070	1532.562	334.033	-472.603	1424.640	354.701	-465.753	1219.068	394.514	-486.063	1359.314	217.215	-481.015	1146.868	172.163	-380.974	1367.701	374.483	-630.194	1436.837	326.002	-732.630	1292.729	314.586	-815.641	1230.226	290.256	-905.937	1166.618	283.672	-1007.260	1128.695	279.248	-981.251	1084.695	252.380	-1030.179	1051.434	285.639	-314.097	1435.403	303.067	-246.640	1281.937	315.883	-203.840	1186.080	317.433	-110.404	1104.580	310.717	-15.424	1057.725	296.147	-49.346	1026.954	305.197	8.613	1005.040	335.438	-612.680	953.431	199.544	-354.429	931.395	208.469	-540.292	991.949	383.281	-425.262	981.588	384.953	-486.624	967.328	398.299	-704.094	664.399	284.057	-681.747	495.723	329.092	-552.247	470.211	334.553	-725.134	266.697	352.679	-685.082	95.659	374.737	-605.292	99.859	347.189	-645.230	86.678	425.459	-663.036	71.292	219.311	-264.545	639.862	292.041	-264.225	493.417	306.405	-395.216	462.155	319.520	-185.700	267.989	353.992	-193.160	95.212	357.261	-277.195	97.336	349.783	-230.720	84.996	424.619	-216.765	65.547	217.708	-492.732	857.878	260.851	-488.493	834.681	80.933	-673.424	873.295	254.606	-476.647	1037.184	238.112	-617.131	489.103	324.737	-649.131	424.871	-52.410	-998.189	528.141	350.421	-583.078	865.586	257.728	-649.159	97.550	362.335	-768.998	73.674	11.595	-999.417	137.431	479.294	-619.017	466.046	326.951	-675.771	86.019	221.722	-653.715	285.313	219.817	-874.326	108.157	238.872	-658.516	86.019	421.498	-681.523	86.019	155.130	-674.171	152.451	154.495	-747.708	93.399	160.847	-675.771	86.019	221.722	-326.472	481.612	313.908	-360.575	423.965	-59.728	-696.829	411.376	358.548	-402.386	850.169	263.973	-231.994	96.194	353.805	-199.537	65.492	-19.642	-595.955	4.482	329.712	-321.090	459.656	316.181	-206.510	86.682	212.265	-255.485	281.905	208.961	-401.291	37.596	199.128	-220.056	86.682	413.108	-201.995	86.682	145.317	-218.320	151.756	144.216	-266.922	70.320	140.938	-206.510	86.682	212.265	NaN	NaN	NaN	NaN	NaN	NaN	NaN	NaN	NaN	NaN	NaN	NaN	-642.336	1381.597	318.924	-731.374	1421.262	162.096	-603.002	1560.546	341.853	-485.426	1359.245	224.186	-304.256	1380.941	294.517	-239.169	1420.958	114.512	-269.892	1190.764	264.664	-485.426	1359.245	224.186	-485.426	1359.245	224.186	-502.733	1361.125	34.885	-296.192	1364.847	206.940	-480.017	1169.237	221.804	-808.155	1242.441	248.495	-722.536	1247.144	37.621	-938.516	1422.535	199.582	-642.336	1381.597	318.924	-996.573	1109.086	259.656	-978.137	1065.491	50.005	-1119.653	1279.122	213.475	-821.344	1233.106	249.276	-1081.223	1001.841	277.682	-1015.403	969.500	394.360	-994.655	921.563	206.595	-996.573	1109.086	259.656	-222.249	1182.428	275.710	-415.365	1108.426	214.748	-271.922	1142.395	481.662	-304.256	1380.941	294.517	-32.705	1040.694	293.875	-155.479	868.420	230.777	-83.565	999.705	504.746	-208.981	1172.507	276.981	54.069	954.011	341.399	39.544	1005.380	461.617	151.852	1038.565	317.083	-32.705	1040.694	293.875	NaN	NaN	NaN	-469.156	1386.998	361.404	-466.741	1529.635	330.339	NaN	NaN	NaN	-0.058	-5.889	2.853	-0.800	-14.511	4.541	0.000	0.000	-5.045	0.005	13.507	-5.188	16.629	6.618	0.098	2.324	-10.720	1.549	-0.007	-0.157	-4.811	0.000	0.000	-4.811	-5.086	1.344	-7.227	5.086	-1.344	-7.227	6.339	-4.937	90.000	14.113	-3.858	90.000	NaN	NaN	NaN	NaN	NaN	NaN	7.396	-6.336	7.328	-7.396	6.336	7.328	-50.276	-162.864	-21.614	-0.000	0.000	-21.303	-16.978	137.910	-1.344	-21.084	-111.103	-2.472	0.000	-0.000	-32.135	-18.390	119.495	2.665	-1.630	5.226	0.718	1.630	-5.226	0.718	NaN	NaN	NaN	NaN	NaN	NaN	-398.685	861.319	279.359	-569.144	876.674	276.882
